<svg width="42" height="40" viewBox="0 0 42 40" fill="none" xmlns="http://www.w3.org/2000/svg">
<path d="M21.0138 18.5008C20.1807 18.5008 19.5053 19.1724 19.5053 20.0008C19.5053 20.8291 20.1807 21.5007 21.0138 21.5007C21.8469 21.5007 22.5223 20.8291 22.5223 20.0008C22.5223 19.1724 21.8469 18.5008 21.0138 18.5008ZM14.9797 18.5008C14.1466 18.5008 13.4711 19.1724 13.4711 20.0008C13.4711 20.8291 14.1466 21.5007 14.9797 21.5007C15.8128 21.5007 16.4882 20.8291 16.4882 20.0008C16.4882 19.1724 15.8128 18.5008 14.9797 18.5008ZM27.048 18.5008C26.2149 18.5008 25.5394 19.1724 25.5394 20.0008C25.5394 20.8291 26.2149 21.5007 27.048 21.5007C27.881 21.5007 28.5565 20.8291 28.5565 20.0008C28.5565 19.1724 27.881 18.5008 27.048 18.5008ZM35.9288 6.58188C28.4756 -1.60884 15.7557 -2.24126 7.51802 5.16933C-0.719621 12.5801 -1.35567 25.2275 6.09739 33.4182L1.19465 38.293C1.00608 38.4805 0.900138 38.7348 0.900138 38.9999C0.900015 39.5521 1.35032 39.9999 1.90571 40H21.0138C26.0009 39.9999 30.8101 38.1575 34.5081 34.8308C42.7459 27.42 43.3818 14.7726 35.9288 6.58188ZM21.0138 38.0001H4.33338L8.21287 34.1428C8.60548 33.7523 8.6056 33.119 8.21287 32.7288C4.81892 29.3542 2.91189 24.7773 2.9114 20.0048C2.91029 10.0651 11.0131 2.00662 21.0098 2.00552C31.0063 2.00442 39.1111 10.0611 39.1122 20.0008C39.1133 29.9403 31.0104 37.999 21.0138 38.0001Z" fill="#87CDFF"/>
</svg>
