<svg width="35" height="40" viewBox="0 0 35 40" fill="none" xmlns="http://www.w3.org/2000/svg">
<path d="M15.25 13H19.25" stroke="#87CDFF" stroke-width="2" stroke-linecap="round" stroke-linejoin="round"/>
<path d="M15.25 20H19.25" stroke="#87CDFF" stroke-width="2" stroke-linecap="round" stroke-linejoin="round"/>
<path d="M15.25 27H19.25" stroke="#87CDFF" stroke-width="2" stroke-linecap="round" stroke-linejoin="round"/>
<path d="M15.25 34H19.25" stroke="#87CDFF" stroke-width="2" stroke-linecap="round" stroke-linejoin="round"/>
<path d="M23.4265 15.0563H22.4265V15.2719L22.5152 15.4682L23.4265 15.0563ZM31.697 33.3524L30.7858 33.7643L31.697 33.3524ZM17.25 40H28.0521V38H17.25V40ZM32.6083 32.9404L24.3377 14.6444L22.5152 15.4682L30.7858 33.7643L32.6083 32.9404ZM24.4265 15.0563V5H22.4265V15.0563H24.4265ZM28.0521 40C31.6841 40 34.1043 36.25 32.6083 32.9404L30.7858 33.7643C31.6834 35.75 30.2313 38 28.0521 38V40Z" fill="#87CDFF"/>
<path d="M11.0735 15.0563H12.0735V15.2719L11.9848 15.4682L11.0735 15.0563ZM2.80297 33.3524L3.71419 33.7643L2.80297 33.3524ZM17.25 40H6.44787V38H17.25V40ZM1.89175 32.9404L10.1623 14.6444L11.9848 15.4682L3.71419 33.7643L1.89175 32.9404ZM10.0735 15.0563V5H12.0735V15.0563H10.0735ZM6.44787 40C2.81591 40 0.395704 36.25 1.89175 32.9404L3.71419 33.7643C2.81657 35.75 4.26869 38 6.44787 38V40Z" fill="#87CDFF"/>
<rect x="8.25" y="1" width="18" height="4" stroke="#87CDFF" stroke-width="2" stroke-linecap="round" stroke-linejoin="round"/>
<path d="M7.65086 23.2648C9.25364 24.4642 13.5297 26.0768 18.737 23.9986L17.9956 22.141C13.4913 23.9387 9.94404 22.4829 8.84914 21.6635L7.65086 23.2648ZM18.737 23.9986C23.337 22.1627 25.9555 23.3163 26.6262 23.8516L27.8738 22.2885C26.5212 21.2088 23.1072 20.101 17.9956 22.141L18.737 23.9986Z" fill="#87CDFF"/>
</svg>
