<svg width="14" height="16" viewBox="0 0 14 16" fill="none" xmlns="http://www.w3.org/2000/svg">
<path fill-rule="evenodd" clip-rule="evenodd" d="M9.75 3.75C9.75 5.26878 8.51878 6.5 7 6.5C5.48122 6.5 4.25 5.26878 4.25 3.75C4.25 2.23122 5.48122 1 7 1C8.51878 1 9.75 2.23122 9.75 3.75Z" stroke="#818285" stroke-width="1.5" stroke-linecap="round" stroke-linejoin="round"/>
<path d="M2.24967 11.7341C2.23738 11.3201 1.89179 10.9944 1.47775 11.0067C1.06372 11.019 0.738044 11.3646 0.75033 11.7786L2.24967 11.7341ZM4.885 14.9504V14.2004C4.8779 14.2004 4.87081 14.2005 4.86372 14.2007L4.885 14.9504ZM9.115 14.9504L9.13628 14.2007C9.12919 14.2005 9.1221 14.2004 9.115 14.2004V14.9504ZM13.2497 11.7786C13.262 11.3646 12.9363 11.019 12.5222 11.0067C12.1082 10.9944 11.7626 11.3201 11.7503 11.7341L13.2497 11.7786ZM11.7503 11.6336C11.7626 12.0476 12.1082 12.3733 12.5222 12.361C12.9363 12.3488 13.262 12.0032 13.2497 11.5891L11.7503 11.6336ZM9.115 8.41737V9.16737C9.1221 9.16737 9.12919 9.16727 9.13628 9.16707L9.115 8.41737ZM4.885 8.41737L4.86372 9.16707C4.87081 9.16727 4.8779 9.16737 4.885 9.16737V8.41737ZM0.75033 11.5891C0.738044 12.0032 1.06372 12.3488 1.47775 12.361C1.89179 12.3733 2.23738 12.0476 2.24967 11.6336L0.75033 11.5891ZM0.75033 11.7786C0.8165 14.0085 2.67632 15.7634 4.90628 15.7001L4.86372 14.2007C3.4611 14.2405 2.29129 13.1367 2.24967 11.7341L0.75033 11.7786ZM4.885 15.7004H9.115V14.2004H4.885V15.7004ZM9.09372 15.7001C11.3237 15.7634 13.1835 14.0085 13.2497 11.7786L11.7503 11.7341C11.7087 13.1367 10.5389 14.2405 9.13628 14.2007L9.09372 15.7001ZM13.2497 11.5891C13.1835 9.35924 11.3237 7.60436 9.09372 7.66767L9.13628 9.16707C10.5389 9.12725 11.7087 10.231 11.7503 11.6336L13.2497 11.5891ZM9.115 7.66737H4.885V9.16737H9.115V7.66737ZM4.90628 7.66767C2.67632 7.60436 0.8165 9.35924 0.75033 11.5891L2.24967 11.6336C2.29129 10.231 3.4611 9.12725 4.86372 9.16707L4.90628 7.66767Z" fill="#818285"/>
</svg>
