<svg width="42" height="42" viewBox="0 0 42 42" fill="none" xmlns="http://www.w3.org/2000/svg">
<path d="M34.125 41.3438H7.875C6.06572 41.3438 4.59375 39.8718 4.59375 38.0625V3.9375C4.59375 2.12822 6.06572 0.65625 7.875 0.65625H21.2254C22.1018 0.65625 22.9261 0.997828 23.5453 1.61733L36.4452 14.5172C37.065 15.1371 37.4062 15.9607 37.4062 16.8371V38.0625C37.4062 39.8718 35.9343 41.3438 34.125 41.3438ZM7.875 1.96875C6.78923 1.96875 5.90625 2.85173 5.90625 3.9375V38.0625C5.90625 39.1483 6.78923 40.0312 7.875 40.0312H34.125C35.2108 40.0312 36.0938 39.1483 36.0938 38.0625V16.8371C36.0938 16.319 35.8834 15.8117 35.5172 15.4452L22.6173 2.54527C22.2456 2.1735 21.7511 1.96875 21.2254 1.96875H7.875Z" fill="#FD4233"/>
<path d="M31.2425 26.355C31.2195 26.1877 31.085 25.9777 30.9406 25.8366C30.5272 25.4297 29.6183 25.2164 28.2336 25.1967C27.2952 25.1869 26.1664 25.2689 24.9786 25.4362C24.447 25.1311 23.8991 24.7964 23.4692 24.3928C22.3109 23.3133 21.3463 21.8138 20.7425 20.1633C20.7819 20.0091 20.8147 19.8745 20.8475 19.7367C20.8475 19.7367 21.4972 16.0355 21.3266 14.782C21.3036 14.6114 21.2872 14.5622 21.2413 14.4277L21.1855 14.2833C21.0083 13.8731 20.6605 13.44 20.1158 13.463L19.7942 13.4531H19.7877C19.1773 13.4531 18.6852 13.7648 18.5539 14.2275C18.1602 15.6844 18.567 17.8664 19.3053 20.6883L19.115 21.1477C18.5867 22.4405 17.9239 23.7398 17.3398 24.885L17.2644 25.0327C16.6475 26.2369 16.0897 27.2606 15.5811 28.1269L15.0594 28.4025C15.02 28.4222 14.1242 28.898 13.9142 29.0227C12.1325 30.0891 10.9513 31.2966 10.7544 32.2547C10.692 32.5631 10.738 32.9536 11.0563 33.1341L11.5616 33.39C11.7814 33.4983 12.0144 33.5541 12.2506 33.5541C13.5205 33.5541 14.9938 31.9725 17.0249 28.4288C19.3677 27.6675 22.0386 27.0309 24.3781 26.6831C26.1598 27.6839 28.3517 28.3828 29.7364 28.3828C29.9825 28.3828 30.1958 28.3598 30.3664 28.3139C30.6322 28.2417 30.8553 28.0908 30.9931 27.8873C31.2622 27.4837 31.3147 26.9259 31.2425 26.355ZM11.975 32.5927C12.2047 31.9594 13.1234 30.7059 14.4786 29.5969C14.5639 29.528 14.7739 29.3311 14.9642 29.1473C13.5467 31.4081 12.5984 32.3072 11.975 32.5927ZM20.0009 14.1094C20.4078 14.1094 20.6408 15.1364 20.6605 16.1011C20.6802 17.0658 20.4538 17.7417 20.1748 18.2437C19.9419 17.5022 19.8303 16.3341 19.8303 15.5695C19.8303 15.5695 19.8139 14.1094 20.0009 14.1094ZM17.6056 27.2803C17.8911 26.7717 18.1864 26.2336 18.4883 25.6659C19.2266 24.2714 19.6925 23.182 20.037 22.2862C20.7261 23.5397 21.5858 24.6061 22.5931 25.4592C22.7211 25.5642 22.8556 25.6725 22.9934 25.7808C20.9427 26.1844 19.1675 26.6798 17.6056 27.2803ZM30.5436 27.1655C30.4189 27.2409 30.0613 27.2869 29.8316 27.2869C29.09 27.2869 28.168 26.9489 26.8784 26.3944C27.3739 26.3583 27.83 26.3386 28.2369 26.3386C28.9817 26.3386 29.2016 26.3353 29.9333 26.5223C30.6617 26.7094 30.6716 27.0867 30.5436 27.1655Z" fill="#FF402F"/>
</svg>
