<svg width="88" height="71" viewBox="0 0 88 71" fill="none" xmlns="http://www.w3.org/2000/svg">
<path fill-rule="evenodd" clip-rule="evenodd" d="M71.2217 70.6355C79.2035 69.247 85.7145 63.027 87.4853 55.0991C90.0105 43.7927 82.9961 32.6687 71.8778 30.3476C69.7022 29.8934 66.3081 29.8567 64.2468 30.2649C59.4788 31.2093 54.8399 34.0313 52.2585 37.5579C51.8428 38.126 51.4549 38.5938 51.3965 38.5977C51.2445 38.6077 51.3931 36.3766 51.6919 34.1634C53.2727 22.4551 60.902 11.9706 71.48 6.96948C75.8028 4.92565 79.9306 3.89724 85.0742 3.5824C86.8379 3.47446 86.9883 3.43568 87.4422 2.97324C88.1318 2.27055 88.1239 1.22215 87.4235 0.5084C86.938 0.0136718 86.8627 -0.00440226 85.3138 0.000861887C78.6581 0.0234977 70.9482 2.48501 65.1079 6.45194C57.6951 11.4869 52.4188 18.5082 49.7164 26.9342C48.0355 32.1742 47.803 34.3061 47.8018 44.4838C47.8011 50.7803 47.8543 52.6915 48.0638 53.9119C49.7537 63.7571 58.2357 70.97 68.0151 70.878C69.0682 70.8682 70.5112 70.759 71.2217 70.6355ZM23.5305 70.635C29.429 69.4958 34.4091 66.0205 37.4355 60.9318C38.2552 59.5532 39.3013 56.9506 39.7112 55.2701C40.177 53.3599 40.3487 49.5634 40.0601 47.5517C38.8201 38.9101 32.5088 32.088 24.1371 30.34C22.0212 29.8983 18.5774 29.8565 16.597 30.2484C11.6029 31.237 7.68901 33.6495 4.17971 37.9027L3.52822 38.6924L3.63069 37.0252C4.49574 22.962 13.4902 10.6846 26.5309 5.76663C29.7407 4.55605 33.3454 3.82844 37.3413 3.58432C39.1022 3.47675 39.2221 3.44463 39.7093 2.94815C40.5123 2.12999 40.3241 0.766018 39.3362 0.245494C38.7767 -0.049336 36.8794 -0.0797011 34.6252 0.170032C25.3407 1.19914 17.0458 5.34859 10.6574 12.16C4.90889 18.289 1.43335 25.7676 0.243488 34.5683C-0.0811433 36.9691 -0.0811446 51.8723 0.243318 53.6974C1.73404 62.0802 7.47701 68.3203 15.595 70.3779C17.5223 70.8663 21.6416 70.9998 23.5305 70.635Z" fill="white"/>
</svg>
