<svg width="210" height="32" viewBox="0 0 210 32" fill="none" xmlns="http://www.w3.org/2000/svg">
<g clip-path="url(#clip0_311_706)">
<path d="M16.4417 15.4751C11.573 8.79474 5.05063 5.12652 1.77417 7.24396C-1.47168 9.39121 -0.185587 16.5189 4.68318 23.1693C9.52132 29.8497 16.0743 33.518 19.3201 31.4005C22.566 29.2831 21.2798 22.1257 16.4417 15.4751ZM18.4321 29.8796C15.6762 31.6988 10.0725 28.5674 5.90803 22.8711C1.77417 17.1749 0.671806 11.0911 3.45834 9.27191C6.21423 7.45271 11.8485 10.5841 15.9518 16.2804C20.0857 21.9765 21.1881 28.0604 18.4321 29.8796Z" fill="#303030"/>
<path d="M31.9382 20.278C37.6033 11.7485 39.1955 2.95078 35.4904 0.594759C31.7545 -1.79108 24.0993 3.21917 18.4344 11.7187C12.7694 20.2183 11.1771 29.0458 14.8823 31.4018C18.6487 33.7877 26.2427 28.7775 31.9382 20.278ZM16.2602 29.702C13.0756 27.674 14.4229 20.1586 19.2917 12.8818C24.1298 5.60502 30.6521 1.34033 33.8368 3.3683C37.0214 5.36642 35.6741 12.9116 30.836 20.1884C25.9671 27.4652 19.4449 31.73 16.2602 29.702Z" fill="#303030"/>
<path d="M134.641 2.41602H135.988V28.5111H152.677V29.5847H134.641V2.41602Z" fill="#303030"/>
<path d="M182.227 22.9044H161.496L157.791 29.6145H156.352L171.325 2.41602H172.428L187.401 29.6145H185.901L182.227 22.9044ZM162.078 21.8009H181.584L171.508 3.48963H172.183L162.078 21.8009Z" fill="#303030"/>
<path d="M195.085 28.5111H194.136L208.528 2.41602H209.998L195.024 29.6145H194.228L179.254 2.41602H180.694L195.085 28.5111Z" fill="#303030"/>
<path d="M49.4831 27.4359H58.3327C61.7929 27.4359 64.61 25.1695 64.61 22.2766C64.61 14.6718 49.4219 19.4435 49.4219 9.72121C49.4219 5.66529 53.4026 2.38477 58.3327 2.38477H67.2434V4.56184H58.3327C54.8724 4.56184 52.0553 6.85821 52.0553 9.72121C52.0553 17.326 67.2434 12.5544 67.2434 22.2766C67.2434 26.3326 63.2625 29.5833 58.3327 29.5833H49.4831V27.4359Z" fill="#303030"/>
<path d="M76.9803 16.0436L91.9234 29.6131H88.3714L75.2043 17.684L72.7545 19.9206V29.5833H70.1211V2.38477H72.7545V16.6401L88.4632 2.38477H91.9846L76.9803 16.0436Z" fill="#303030"/>
<path d="M94.7734 2.41602H97.4069V29.6145H94.7734V2.41602Z" fill="#303030"/>
<path d="M101.355 2.41602H105.734L128.241 26.1252V2.41602H130.874V29.6145H128.241L104.509 4.59309H103.989V29.6145H101.355V2.41602Z" fill="#303030"/>
<path d="M162.077 21.7969H181.584L182.195 22.9004H161.465L162.077 21.7969Z" fill="#303030"/>
</g>
<defs>
<clipPath id="clip0_311_706">
<rect width="210" height="32" fill="white"/>
</clipPath>
</defs>
</svg>
