<svg width="56" height="48" viewBox="0 0 56 48" fill="none" xmlns="http://www.w3.org/2000/svg">
<g clip-path="url(#clip0_311_1210)">
<path d="M23.0148 30.52C21.5068 30.52 20.1895 30.1127 19.0628 29.298C17.9361 28.4833 17.0608 27.2613 16.4368 25.632C15.8128 23.9853 15.5008 21.9747 15.5008 19.6C15.5008 17.2253 15.8128 15.2233 16.4368 13.594C17.0608 11.9473 17.9361 10.7167 19.0628 9.902C20.1895 9.08733 21.5068 8.68 23.0148 8.68C24.5228 8.68 25.8401 9.08733 26.9668 9.902C28.0935 10.7167 28.9688 11.9473 29.5928 13.594C30.2168 15.2233 30.5288 17.2253 30.5288 19.6C30.5288 21.9747 30.2168 23.9853 29.5928 25.632C28.9688 27.2613 28.0935 28.4833 26.9668 29.298C25.8401 30.1127 24.5228 30.52 23.0148 30.52ZM23.0148 29.922C24.3148 29.922 25.3375 29.2893 26.0828 28.024C26.8281 26.7587 27.2008 24.7827 27.2008 22.096V17.078C27.2008 14.4087 26.8281 12.4413 26.0828 11.176C25.3375 9.91067 24.3148 9.278 23.0148 9.278C21.7148 9.278 20.6921 9.91067 19.9468 11.176C19.2015 12.4413 18.8288 14.4087 18.8288 17.078V22.096C18.8288 24.7653 19.2015 26.7413 19.9468 28.024C20.6921 29.2893 21.7148 29.922 23.0148 29.922ZM33.5003 30V29.48L35.3203 29.22V9.98L33.5003 9.72V9.2H37.9203V29.22L39.7403 29.48V30H33.5003Z" fill="#2F5A86"/>
<path d="M47.4966 0.00575974C51.376 3.90688 54.0237 8.88677 55.104 14.314C56.1843 19.7412 55.6486 25.3712 53.5648 30.4903C51.481 35.6093 47.9429 39.9867 43.3992 43.0674C38.8555 46.1481 33.5109 47.7934 28.043 47.7946C22.5751 47.7958 17.2303 46.1529 12.6862 43.0741C8.14215 39.9954 4.60355 35.6196 2.5191 30.5015C0.434646 25.3834 -0.101758 19.7536 0.977901 14.3259C2.05756 8.89821 4.70465 3.91716 8.58352 0.0143263L11.7548 3.24574C8.5081 6.51248 6.29244 10.6817 5.38874 15.2248C4.48505 19.7678 4.93403 24.4801 6.67875 28.764C8.42347 33.048 11.3853 36.7106 15.1888 39.2876C18.9923 41.8645 23.466 43.2397 28.0427 43.2387C32.6194 43.2377 37.093 41.8605 40.8961 39.2819C44.6993 36.7033 47.6607 33.0393 49.4049 28.7546C51.1491 24.4699 51.5975 19.7575 50.6933 15.2148C49.789 10.6721 47.5728 6.50388 44.3258 3.23857L47.4966 0.00575974Z" fill="#DCE7F2"/>
</g>
<defs>
<clipPath id="clip0_311_1210">
<rect width="56" height="48" fill="white"/>
</clipPath>
</defs>
</svg>
