<svg width="56" height="48" viewBox="0 0 56 48" fill="none" xmlns="http://www.w3.org/2000/svg">
<g clip-path="url(#clip0_311_1207)">
<path d="M19.5236 30.52C18.0156 30.52 16.6983 30.1127 15.5716 29.298C14.4449 28.4833 13.5696 27.2613 12.9456 25.632C12.3216 23.9853 12.0096 21.9747 12.0096 19.6C12.0096 17.2253 12.3216 15.2233 12.9456 13.594C13.5696 11.9473 14.4449 10.7167 15.5716 9.902C16.6983 9.08733 18.0156 8.68 19.5236 8.68C21.0316 8.68 22.3489 9.08733 23.4756 9.902C24.6023 10.7167 25.4776 11.9473 26.1016 13.594C26.7256 15.2233 27.0376 17.2253 27.0376 19.6C27.0376 21.9747 26.7256 23.9853 26.1016 25.632C25.4776 27.2613 24.6023 28.4833 23.4756 29.298C22.3489 30.1127 21.0316 30.52 19.5236 30.52ZM19.5236 29.922C20.8236 29.922 21.8463 29.2893 22.5916 28.024C23.3369 26.7587 23.7096 24.7827 23.7096 22.096V17.078C23.7096 14.4087 23.3369 12.4413 22.5916 11.176C21.8463 9.91067 20.8236 9.278 19.5236 9.278C18.2236 9.278 17.2009 9.91067 16.4556 11.176C15.7103 12.4413 15.3376 14.4087 15.3376 17.078V22.096C15.3376 24.7653 15.7103 26.7413 16.4556 28.024C17.2009 29.2893 18.2236 29.922 19.5236 29.922ZM29.5671 27.998L35.0531 22.408C36.4918 20.9173 37.5838 19.47 38.3291 18.066C39.0918 16.6447 39.4731 15.18 39.4731 13.672C39.4731 12.1467 39.1438 11.0373 38.4851 10.344C37.8438 9.63333 36.9684 9.278 35.8591 9.278C34.9924 9.278 34.2384 9.512 33.5971 9.98C32.9558 10.448 32.6351 11.0633 32.6351 11.826C32.6351 12.7447 33.0944 13.4293 34.0131 13.88C34.0131 14.504 33.8224 14.9807 33.4411 15.31C33.0598 15.6393 32.6091 15.804 32.0891 15.804C31.5344 15.804 31.0578 15.6047 30.6591 15.206C30.2604 14.79 30.0611 14.2267 30.0611 13.516C30.0611 12.58 30.3471 11.748 30.9191 11.02C31.4911 10.2747 32.2538 9.70267 33.2071 9.304C34.1604 8.888 35.1831 8.68 36.2751 8.68C38.3898 8.68 39.9584 9.18267 40.9811 10.188C42.0038 11.176 42.5151 12.4847 42.5151 14.114C42.5151 15.102 42.3071 16.012 41.8911 16.844C41.4924 17.6587 41.0071 18.3693 40.4351 18.976C39.8804 19.5827 39.1178 20.3107 38.1471 21.16L37.4191 21.784L31.2051 27.27H40.9031L41.9691 23.422H42.6451V30H29.5671V27.998Z" fill="#2F5A86"/>
<path d="M47.4966 0.00575974C51.376 3.90688 54.0237 8.88677 55.104 14.314C56.1843 19.7412 55.6486 25.3712 53.5648 30.4903C51.481 35.6093 47.9429 39.9867 43.3992 43.0674C38.8555 46.1481 33.5109 47.7934 28.043 47.7946C22.5751 47.7958 17.2303 46.1529 12.6862 43.0741C8.14215 39.9954 4.60355 35.6196 2.5191 30.5015C0.434646 25.3834 -0.101758 19.7536 0.977901 14.3259C2.05756 8.89821 4.70465 3.91716 8.58352 0.0143263L11.7548 3.24574C8.5081 6.51248 6.29244 10.6817 5.38874 15.2248C4.48505 19.7678 4.93403 24.4801 6.67875 28.764C8.42347 33.048 11.3853 36.7106 15.1888 39.2876C18.9923 41.8645 23.466 43.2397 28.0427 43.2387C32.6194 43.2377 37.093 41.8605 40.8961 39.2819C44.6993 36.7033 47.6607 33.0393 49.4049 28.7546C51.1491 24.4699 51.5975 19.7575 50.6933 15.2148C49.789 10.6721 47.5728 6.50388 44.3258 3.23857L47.4966 0.00575974Z" fill="#DCE7F2"/>
</g>
<defs>
<clipPath id="clip0_311_1207">
<rect width="56" height="48" fill="white"/>
</clipPath>
</defs>
</svg>
