<svg width="30" height="30" viewBox="0 0 30 30" fill="none" xmlns="http://www.w3.org/2000/svg">
<circle cx="15" cy="15" r="15" fill="#DCE7F2"/>
<path d="M20.832 14.1693H15.832V9.16927C15.832 8.94826 15.7442 8.7363 15.588 8.58002C15.4317 8.42374 15.2197 8.33594 14.9987 8.33594C14.7777 8.33594 14.5657 8.42374 14.4094 8.58002C14.2532 8.7363 14.1654 8.94826 14.1654 9.16927V14.1693H9.16536C8.94435 14.1693 8.73239 14.2571 8.57611 14.4133C8.41983 14.5696 8.33203 14.7816 8.33203 15.0026C8.33203 15.2236 8.41983 15.4356 8.57611 15.5919C8.73239 15.7481 8.94435 15.8359 9.16536 15.8359H14.1654V20.8359C14.1654 21.057 14.2532 21.2689 14.4094 21.4252C14.5657 21.5815 14.7777 21.6693 14.9987 21.6693C15.2197 21.6693 15.4317 21.5815 15.588 21.4252C15.7442 21.2689 15.832 21.057 15.832 20.8359V15.8359H20.832C21.053 15.8359 21.265 15.7481 21.4213 15.5919C21.5776 15.4356 21.6654 15.2236 21.6654 15.0026C21.6654 14.7816 21.5776 14.5696 21.4213 14.4133C21.265 14.2571 21.053 14.1693 20.832 14.1693Z" fill="white"/>
</svg>
