<svg width="82" height="84" viewBox="0 0 82 84" fill="none" xmlns="http://www.w3.org/2000/svg">
<path fill-rule="evenodd" clip-rule="evenodd" d="M40.809 29.3789C34.1194 29.3789 28.6641 34.8256 28.6641 41.5152C28.664 48.2049 34.1194 53.658 40.809 53.658C47.4986 53.658 52.9432 48.2049 52.9432 41.5152C52.9431 34.8256 47.4986 29.3789 40.809 29.3789ZM40.809 31.5855C46.3061 31.5855 50.7365 36.0181 50.7366 41.5152C50.7366 47.0123 46.3061 51.4514 40.809 51.4514C35.3119 51.4514 30.8707 47.0123 30.8707 41.5152C30.8707 36.0181 35.3119 31.5855 40.809 31.5855ZM40.7918 33.777C40.646 33.7784 40.5019 33.8087 40.3678 33.8662C40.2338 33.9236 40.1125 34.007 40.0109 34.1116C39.9093 34.2162 39.8295 34.3399 39.776 34.4755C39.7225 34.6112 39.6964 34.7561 39.6992 34.9019V41.5152C39.6998 41.6604 39.7291 41.804 39.7853 41.9379C39.8415 42.0718 39.9235 42.1932 40.0268 42.2953L44.44 46.7106C44.5419 46.8162 44.6639 46.9004 44.7988 46.9582C44.9337 47.0161 45.0788 47.0464 45.2256 47.0475C45.3724 47.0486 45.5179 47.0203 45.6536 46.9645C45.7893 46.9086 45.9125 46.8262 46.016 46.7222C46.1195 46.6181 46.2012 46.4944 46.2563 46.3584C46.3114 46.2224 46.3389 46.0767 46.337 45.9299C46.3351 45.7832 46.3039 45.6383 46.2454 45.5037C46.1868 45.3691 46.1019 45.2476 45.9958 45.1462L41.908 41.0584V34.9019C41.9109 34.7541 41.884 34.6072 41.8291 34.47C41.7741 34.3328 41.6921 34.2081 41.588 34.1031C41.4839 33.9982 41.3598 33.9153 41.223 33.8593C41.0862 33.8032 40.9396 33.7753 40.7918 33.777Z" fill="#2F5A86"/>
<path d="M61.4787 20.7518C65.5318 24.8558 68.292 30.0846 69.4102 35.777C70.5285 41.4694 69.9546 47.3697 67.761 52.7318C65.5675 58.094 61.8529 62.677 57.0869 65.9015C52.321 69.126 46.7178 70.8471 40.9858 70.8471C35.2538 70.8471 29.6506 69.126 24.8846 65.9015C20.1187 62.677 16.4041 58.094 14.2105 52.7318C12.017 47.3697 11.4431 41.4694 12.5613 35.777C13.6796 30.0846 16.4398 24.8558 20.4929 20.7518L23.8329 24.1337C20.4403 27.5688 18.13 31.9454 17.194 36.7101C16.258 41.4747 16.7384 46.4134 18.5744 50.9016C20.4104 55.3898 23.5196 59.2259 27.5088 61.9248C31.498 64.6238 36.188 66.0643 40.9858 66.0643C45.7835 66.0643 50.4736 64.6238 54.4628 61.9248C58.4519 59.2259 61.5611 55.3898 63.3972 50.9016C65.2332 46.4134 65.7136 41.4747 64.7776 36.7101C63.8416 31.9454 61.5312 27.5688 58.1387 24.1337L61.4787 20.7518Z" fill="#DCE7F2"/>
</svg>
