<svg width="30" height="30" viewBox="0 0 30 30" fill="none" xmlns="http://www.w3.org/2000/svg">
<g clip-path="url(#clip0_292_1842)">
<path d="M7.60735 29.8938C6.44698 29.8809 5.29751 29.6681 4.20941 29.2647C3.41484 28.971 2.69594 28.5034 2.10529 27.8962C1.4964 27.3067 1.02814 26.5876 0.735294 25.7924C0.33228 24.7043 0.11976 23.5549 0.107059 22.3947C0.0179412 20.4659 0 19.8874 0 15C0 10.1126 0.0197059 9.53618 0.106176 7.60588C0.120418 6.44611 0.333201 5.29734 0.735294 4.20941C1.02957 3.41471 1.49716 2.69553 2.10412 2.10412C2.69404 1.49577 3.41327 1.02795 4.20853 0.735294C5.29663 0.331946 6.44609 0.119126 7.60647 0.106176C9.53588 0.0179412 10.1153 0 15 0C19.8847 0 20.4638 0.0197059 22.3941 0.106176C23.5542 0.120318 24.7033 0.333102 25.7915 0.735294C26.5864 1.02833 27.3054 1.496 27.8956 2.10382C28.5036 2.69419 28.9715 3.41341 29.2647 4.20853C29.6682 5.29661 29.8811 6.44608 29.8941 7.60647C29.9824 9.53677 30.0003 10.1147 30.0003 15.0006C30.0003 19.8865 29.9824 20.4644 29.8941 22.3947C29.8801 23.5549 29.6672 24.7041 29.2647 25.7924C28.9602 26.5815 28.4939 27.2982 27.8957 27.8962C27.2975 28.4943 26.5807 28.9604 25.7915 29.2647C24.7034 29.6681 23.5539 29.8811 22.3935 29.8941C20.465 29.9824 19.8853 30.0003 14.9994 30.0003C10.1135 30.0003 9.53559 29.9832 7.60706 29.8941" fill="url(#paint0_radial_292_1842)"/>
<path d="M7.60735 29.8938C6.44698 29.8809 5.29751 29.6681 4.20941 29.2647C3.41484 28.971 2.69594 28.5034 2.10529 27.8962C1.4964 27.3067 1.02814 26.5876 0.735294 25.7924C0.33228 24.7043 0.11976 23.5549 0.107059 22.3947C0.0179412 20.4659 0 19.8874 0 15C0 10.1126 0.0197059 9.53618 0.106176 7.60588C0.120418 6.44611 0.333201 5.29734 0.735294 4.20941C1.02957 3.41471 1.49716 2.69553 2.10412 2.10412C2.69404 1.49577 3.41327 1.02795 4.20853 0.735294C5.29663 0.331946 6.44609 0.119126 7.60647 0.106176C9.53588 0.0179412 10.1153 0 15 0C19.8847 0 20.4638 0.0197059 22.3941 0.106176C23.5542 0.120318 24.7033 0.333102 25.7915 0.735294C26.5864 1.02833 27.3054 1.496 27.8956 2.10382C28.5036 2.69419 28.9715 3.41341 29.2647 4.20853C29.6682 5.29661 29.8811 6.44608 29.8941 7.60647C29.9824 9.53677 30.0003 10.1147 30.0003 15.0006C30.0003 19.8865 29.9824 20.4644 29.8941 22.3947C29.8801 23.5549 29.6672 24.7041 29.2647 25.7924C28.9602 26.5815 28.4939 27.2982 27.8957 27.8962C27.2975 28.4943 26.5807 28.9604 25.7915 29.2647C24.7034 29.6681 23.5539 29.8811 22.3935 29.8941C20.465 29.9824 19.8853 30.0003 14.9994 30.0003C10.1135 30.0003 9.53559 29.9832 7.60706 29.8941" fill="url(#paint1_radial_292_1842)"/>
<path d="M11.3173 15.0643C11.3174 14.3296 11.5353 13.6113 11.9436 13.0004C12.3519 12.3895 12.9321 11.9134 13.611 11.6323C14.2898 11.3512 15.0368 11.2777 15.7575 11.4211C16.4781 11.5645 17.14 11.9184 17.6595 12.438C18.179 12.9577 18.5328 13.6197 18.676 14.3403C18.8193 15.061 18.7456 15.808 18.4643 16.4868C18.183 17.1656 17.7068 17.7457 17.0958 18.1538C16.4848 18.562 15.7665 18.7797 15.0317 18.7796C14.0465 18.7795 13.1017 18.388 12.4051 17.6912C11.7085 16.9945 11.3172 16.0496 11.3173 15.0643ZM9.30878 15.0643C9.30878 16.1962 9.64442 17.3027 10.2733 18.2438C10.9021 19.185 11.7959 19.9185 12.8416 20.3516C13.8874 20.7848 15.0381 20.8981 16.1482 20.6773C17.2583 20.4565 18.2781 19.9114 19.0784 19.1111C19.8788 18.3107 20.4239 17.291 20.6447 16.1808C20.8655 15.0707 20.7522 13.92 20.319 12.8743C19.8859 11.8285 19.1523 10.9347 18.2112 10.3059C17.2701 9.67703 16.1636 9.34139 15.0317 9.34139C14.2802 9.34135 13.536 9.48935 12.8416 9.77694C12.1472 10.0645 11.5163 10.4861 10.9849 11.0175C10.4535 11.5489 10.0319 12.1799 9.74433 12.8742C9.45674 13.5686 9.30874 14.3128 9.30878 15.0643ZM19.6438 9.11462C19.6437 9.37913 19.722 9.63773 19.8688 9.85772C20.0157 10.0777 20.2245 10.2492 20.4688 10.3505C20.7131 10.4519 20.982 10.4785 21.2415 10.427C21.5009 10.3755 21.7393 10.2482 21.9264 10.0613C22.1135 9.87433 22.241 9.6361 22.2927 9.3767C22.3444 9.1173 22.318 8.84839 22.2169 8.60397C22.1158 8.35956 21.9445 8.15062 21.7246 8.00358C21.5047 7.85653 21.2462 7.77798 20.9817 7.77786C20.6272 7.77802 20.2872 7.91889 20.0364 8.16953C19.7857 8.42017 19.6447 8.76009 19.6444 9.11462H19.6438ZM10.5297 24.1364C9.82293 24.1286 9.12281 23.9993 8.45995 23.754C7.97924 23.5688 7.54265 23.2849 7.17828 22.9206C6.81392 22.5564 6.52985 22.12 6.34436 21.6393C6.099 20.9765 5.96966 20.2764 5.96201 19.5696C5.9079 18.3949 5.89731 18.042 5.89731 15.0658C5.89731 12.0896 5.90907 11.7376 5.96201 10.5617C5.97059 9.85504 6.0999 9.15505 6.34436 8.49197C6.52963 8.01111 6.81362 7.57442 7.178 7.21003C7.54239 6.84564 7.97909 6.56166 8.45995 6.37639C9.12278 6.13103 9.82292 6.0017 10.5297 5.99404C11.7044 5.93992 12.0573 5.92933 15.0323 5.92933C18.0073 5.92933 18.3605 5.94081 19.5364 5.99434C20.2431 6.00291 20.9431 6.13222 21.6061 6.37669C22.087 6.56197 22.5237 6.84596 22.8881 7.21034C23.2524 7.57473 23.5364 8.01142 23.7217 8.49227C23.9671 9.1551 24.0964 9.85524 24.1041 10.562C24.1582 11.7385 24.1688 12.0896 24.1688 15.0661C24.1688 18.0426 24.1579 18.3943 24.1041 19.5702C24.0958 20.2769 23.9665 20.9769 23.7217 21.6399C23.5362 22.1205 23.2522 22.557 22.8878 22.9212C22.5234 23.2855 22.0868 23.5693 21.6061 23.7546C20.9433 24 20.2432 24.1293 19.5364 24.137C18.3617 24.1911 18.0088 24.2017 15.0323 24.2017C12.0558 24.2017 11.7041 24.1908 10.5297 24.137V24.1364ZM10.4373 3.98728C9.51255 4.00546 8.59759 4.18049 7.73142 4.50492C6.99098 4.7912 6.31854 5.22906 5.75719 5.7904C5.19585 6.35174 4.758 7.02419 4.47171 7.76462C4.14733 8.63081 3.9723 9.54576 3.95407 10.4705C3.89907 11.6587 3.88672 12.0387 3.88672 15.0655C3.88672 18.0923 3.89937 18.472 3.95407 19.6605C3.97229 20.5853 4.14732 21.5002 4.47171 22.3664C4.75802 23.1068 5.19587 23.7793 5.75721 24.3406C6.31855 24.9019 6.99099 25.3398 7.73142 25.6261C8.59763 25.9504 9.51257 26.1254 10.4373 26.1437C11.6261 26.1979 12.0055 26.2111 15.0323 26.2111C18.0591 26.2111 18.4388 26.1984 19.6273 26.1437C20.5521 26.1255 21.467 25.9504 22.3332 25.6261C23.0736 25.3398 23.7461 24.9019 24.3074 24.3406C24.8687 23.7793 25.3066 23.1068 25.5929 22.3664C25.9177 21.5003 26.0928 20.5853 26.1105 19.6605C26.1647 18.4714 26.177 18.0923 26.177 15.0655C26.177 12.0387 26.1644 11.659 26.1105 10.4705C26.0924 9.54575 25.9173 8.63079 25.5929 7.76462C25.3066 7.02433 24.8689 6.35198 24.3077 5.79066C23.7465 5.22933 23.0743 4.7914 22.3341 4.50492C21.468 4.18028 20.553 4.00524 19.6282 3.98728C18.4397 3.93286 18.06 3.91992 15.0338 3.91992C12.0076 3.91992 11.627 3.93257 10.4379 3.98728" fill="white"/>
</g>
<defs>
<radialGradient id="paint0_radial_292_1842" cx="0" cy="0" r="1" gradientUnits="userSpaceOnUse" gradientTransform="translate(1.94147 29.3429) scale(38.0888)">
<stop offset="0.09" stop-color="#FA8F21"/>
<stop offset="0.78" stop-color="#D82D7E"/>
</radialGradient>
<radialGradient id="paint1_radial_292_1842" cx="0" cy="0" r="1" gradientUnits="userSpaceOnUse" gradientTransform="translate(20.78 28.3794) scale(33.5185)">
<stop offset="0.64" stop-color="#8C3AAA" stop-opacity="0"/>
<stop offset="1" stop-color="#8C3AAA"/>
</radialGradient>
<clipPath id="clip0_292_1842">
<rect width="30" height="30" fill="white"/>
</clipPath>
</defs>
</svg>
