<svg width="144" height="22" viewBox="0 0 144 22" fill="none" xmlns="http://www.w3.org/2000/svg">
<g clip-path="url(#clip0_292_1850)">
<path d="M11.2733 10.6394C7.93473 6.04663 3.46229 3.52473 1.21557 4.98047C-1.01015 6.4567 -0.128264 11.357 3.21032 15.9292C6.5279 20.5219 11.0213 23.0439 13.247 21.5881C15.4728 20.1324 14.5909 15.2116 11.2733 10.6394ZM12.6382 20.5425C10.7484 21.7932 6.90586 19.6403 4.05021 15.7241C1.21557 11.808 0.459663 7.62538 2.37043 6.37468C4.26018 5.12398 8.1237 7.27683 10.9373 11.193C13.772 15.1091 14.528 19.2918 12.6382 20.5425Z" fill="#303030"/>
<path d="M21.8986 13.9411C25.7832 8.07712 26.875 2.02866 24.3343 0.408897C21.7726 -1.23137 16.5233 2.21318 12.6388 8.05661C8.75426 13.9001 7.6624 19.969 10.2031 21.5887C12.7858 23.2291 17.9931 19.7845 21.8986 13.9411ZM11.148 20.4201C8.96423 19.0258 9.88812 13.859 13.2267 8.85624C16.5443 3.85345 21.0167 0.921478 23.2005 2.3157C25.3842 3.68942 24.4603 8.87674 21.1428 13.8795C17.8041 18.8823 13.3317 21.8143 11.148 20.4201Z" fill="#303030"/>
<path d="M92.3242 1.66016H93.2481V19.6005H104.692V20.3386H92.3242V1.66016Z" fill="#303030"/>
<path d="M124.954 15.7459H110.738L108.198 20.3591H107.211L117.478 1.66016H118.235L128.502 20.3591H127.473L124.954 15.7459ZM111.137 14.9872H124.513L117.604 2.39827H118.067L111.137 14.9872Z" fill="#303030"/>
<path d="M133.774 19.6005H133.123L142.992 1.66016H144L133.732 20.3591H133.186L122.918 1.66016H123.906L133.774 19.6005Z" fill="#303030"/>
<path d="M33.9287 18.8614H39.997C42.3697 18.8614 44.3014 17.3032 44.3014 15.3143C44.3014 10.086 33.8867 13.3665 33.8867 6.68248C33.8867 3.89403 36.6164 1.63867 39.997 1.63867H46.1072V3.13541H39.997C37.6243 3.13541 35.6925 4.71416 35.6925 6.68248C35.6925 11.9108 46.1072 8.63028 46.1072 15.3143C46.1072 18.1028 43.3775 20.3377 39.997 20.3377H33.9287V18.8614Z" fill="#303030"/>
<path d="M52.7855 11.0291L63.0322 20.3581H60.5965L51.5676 12.1569L49.8878 13.6946V20.3377H48.082V1.63867H49.8878V11.4392L60.6595 1.63867H63.0741L52.7855 11.0291Z" fill="#303030"/>
<path d="M64.9844 1.66016H66.7902V20.3591H64.9844V1.66016Z" fill="#303030"/>
<path d="M69.5 1.66016H72.5026L87.9356 17.9602V1.66016H89.7414V20.3591H87.9356L71.6627 3.15689H71.3058V20.3591H69.5V1.66016Z" fill="#303030"/>
<path d="M111.139 14.9844H124.515L124.934 15.743H110.719L111.139 14.9844Z" fill="#303030"/>
</g>
<defs>
<clipPath id="clip0_292_1850">
<rect width="144" height="22" fill="white"/>
</clipPath>
</defs>
</svg>
