<svg width="30" height="30" viewBox="0 0 30 30" fill="none" xmlns="http://www.w3.org/2000/svg">
<g clip-path="url(#clip0_292_1846)">
<path d="M7.60735 29.8938C6.44698 29.8809 5.29751 29.6681 4.20941 29.2647C3.41484 28.971 2.69594 28.5034 2.10529 27.8962C1.4964 27.3067 1.02814 26.5876 0.735294 25.7924C0.33228 24.7043 0.11976 23.5549 0.107059 22.3947C0.0179412 20.4659 0 19.8874 0 15C0 10.1126 0.0197059 9.53618 0.106176 7.60588C0.120418 6.44611 0.333201 5.29734 0.735294 4.20941C1.02957 3.41471 1.49716 2.69553 2.10412 2.10412C2.69404 1.49577 3.41327 1.02795 4.20853 0.735294C5.29663 0.331946 6.44609 0.119126 7.60647 0.106176C9.53588 0.0179412 10.1153 0 15 0C19.8847 0 20.4638 0.0197059 22.3941 0.106176C23.5542 0.120318 24.7033 0.333102 25.7915 0.735294C26.5864 1.02833 27.3054 1.496 27.8956 2.10382C28.5036 2.69419 28.9715 3.41341 29.2647 4.20853C29.6682 5.29661 29.8811 6.44608 29.8941 7.60647C29.9824 9.53677 30.0003 10.1147 30.0003 15.0006C30.0003 19.8865 29.9824 20.4644 29.8941 22.3947C29.8801 23.5549 29.6672 24.7041 29.2647 25.7924C28.9602 26.5815 28.4939 27.2982 27.8957 27.8962C27.2975 28.4943 26.5807 28.9604 25.7915 29.2647C24.7034 29.6681 23.5539 29.8811 22.3935 29.8941C20.465 29.9824 19.8853 30.0003 14.9994 30.0003C10.1135 30.0003 9.53559 29.9832 7.60706 29.8941" fill="#0077FF"/>
<path d="M23.8103 10.2183C23.6026 10.8714 23.3226 11.4398 22.9718 11.956L22.9865 11.9329C22.6418 12.5072 22.2303 13.1708 21.7518 13.9237C21.3416 14.518 21.1244 14.8257 21.1003 14.8467C20.9941 14.9798 20.9203 15.1429 20.8949 15.3221L20.8941 15.3275C20.9149 15.4906 20.9903 15.6329 21.1003 15.739L21.408 16.0821C23.0541 17.7739 23.98 18.9401 24.1857 19.5806C24.2126 19.6514 24.228 19.7329 24.228 19.8183C24.228 19.9675 24.1803 20.1052 24.0995 20.2183L24.1011 20.216C23.9657 20.3552 23.7765 20.4414 23.5672 20.4414C23.5441 20.4414 23.5203 20.4406 23.498 20.4383H23.5011H21.4772C21.4765 20.4383 21.4749 20.4383 21.4734 20.4383C21.2141 20.4383 20.9757 20.3475 20.7888 20.1967L20.7911 20.1983C20.5188 19.9744 20.2765 19.7321 20.0595 19.469L20.0526 19.4598C19.6982 19.0593 19.3839 18.7221 19.1095 18.4483C18.1957 17.5796 17.5213 17.1452 17.0865 17.1452C17.0703 17.1437 17.0518 17.1429 17.0326 17.1429C16.9057 17.1429 16.7872 17.1821 16.6895 17.249L16.6918 17.2475C16.6118 17.3475 16.5634 17.4767 16.5634 17.616C16.5634 17.6437 16.5649 17.6698 16.5688 17.6967V17.6937C16.548 17.9352 16.5357 18.216 16.5357 18.4998C16.5357 18.5914 16.5372 18.6821 16.5395 18.7729V18.7598V19.6514C16.5472 19.6875 16.5518 19.729 16.5518 19.7714C16.5518 19.9575 16.4672 20.1237 16.3349 20.2337L16.3341 20.2344C16.0365 20.3706 15.6888 20.4506 15.3218 20.4506C15.2434 20.4506 15.1665 20.4467 15.0903 20.4398L15.1003 20.4406C13.8895 20.4175 12.7665 20.0629 11.8118 19.4652L11.8388 19.4806C10.6765 18.7744 9.71338 17.8552 8.97953 16.769L8.95876 16.7367C8.26184 15.8121 7.61184 14.7675 7.05799 13.666L7.00415 13.5475C6.6803 12.9306 6.34492 12.1721 6.05569 11.3921L6.00953 11.2498C5.89184 10.899 5.80645 10.4914 5.77107 10.069L5.76953 10.0498C5.76953 9.6611 5.99825 9.46674 6.45569 9.46674H8.47876C8.49722 9.4652 8.51876 9.46443 8.54107 9.46443C8.73184 9.46443 8.90799 9.52981 9.04722 9.63981L9.04569 9.63828C9.19953 9.80674 9.31338 10.0137 9.36953 10.2444L9.37184 10.2537C9.74415 11.3052 10.1388 12.1883 10.5926 13.0344L10.5411 12.929C10.9118 13.6752 11.3218 14.3175 11.7895 14.9106L11.7718 14.8867C12.1821 15.3903 12.5021 15.6421 12.7318 15.6421C12.7388 15.6429 12.7472 15.6429 12.7565 15.6429C12.8703 15.6429 12.9695 15.5814 13.0234 15.489L13.0241 15.4875C13.0811 15.3414 13.1141 15.1714 13.1141 14.9944C13.1141 14.9567 13.1126 14.919 13.1095 14.8821V14.8867V11.9029C13.0934 11.5514 13.0072 11.2229 12.8634 10.9283L12.8695 10.9429C12.7741 10.7398 12.6595 10.5644 12.5234 10.4083L12.5257 10.4114C12.3995 10.2852 12.3134 10.1198 12.2865 9.9352L12.2857 9.93058C12.2857 9.79981 12.3457 9.68212 12.4395 9.6052L12.4403 9.60443C12.5334 9.51904 12.658 9.46751 12.7941 9.46751H12.8003H15.9895C16.0065 9.4652 16.0257 9.46443 16.0457 9.46443C16.1957 9.46443 16.3303 9.53212 16.4195 9.63828L16.4203 9.63904C16.4995 9.78366 16.5465 9.95674 16.5465 10.1398C16.5465 10.169 16.5449 10.1975 16.5426 10.226V10.2221V14.2014C16.5411 14.2198 16.5403 14.2414 16.5403 14.2629C16.5403 14.4044 16.5795 14.5375 16.6472 14.6506L16.6457 14.6475C16.7018 14.7306 16.7957 14.7844 16.9018 14.7844H16.9026C17.038 14.7752 17.1611 14.7306 17.2649 14.6598L17.2626 14.6614C17.4718 14.5175 17.6518 14.3537 17.808 14.1683L17.8111 14.1644C18.278 13.6367 18.7088 13.0537 19.0841 12.4337L19.1141 12.3798C19.3788 11.9414 19.6649 11.4014 19.9241 10.8467L19.9718 10.7337L20.3149 10.0475C20.4341 9.70443 20.7541 9.46289 21.1303 9.46289C21.1449 9.46289 21.1595 9.46289 21.1741 9.46366H21.1718H23.1957C23.7424 9.46366 23.9475 9.7152 23.8111 10.2183H23.8103Z" fill="white"/>
</g>
<defs>
<clipPath id="clip0_292_1846">
<rect width="30" height="30" fill="white"/>
</clipPath>
</defs>
</svg>
