<svg width="82" height="84" viewBox="0 0 82 84" fill="none" xmlns="http://www.w3.org/2000/svg">
<path d="M41.0898 49.3237C41.3052 49.3237 41.5159 49.2621 41.695 49.1467C41.8742 49.0313 42.0138 48.8672 42.0963 48.6752C42.1788 48.4833 42.2003 48.272 42.1583 48.0683C42.1163 47.8645 42.0125 47.6773 41.8601 47.5304C41.7078 47.3834 41.5136 47.2834 41.3023 47.2428C41.091 47.2023 40.8719 47.2231 40.6729 47.3026C40.4738 47.3821 40.3036 47.5168 40.1839 47.6896C40.0642 47.8623 40.0003 48.0654 40.0003 48.2732C40.0003 48.5518 40.1151 48.819 40.3194 49.016C40.5237 49.2131 40.8008 49.3237 41.0898 49.3237ZM46.537 49.3237C46.7525 49.3237 46.9631 49.2621 47.1423 49.1467C47.3214 49.0313 47.4611 48.8672 47.5435 48.6752C47.626 48.4833 47.6476 48.272 47.6055 48.0683C47.5635 47.8645 47.4597 47.6773 47.3074 47.5304C47.155 47.3834 46.9609 47.2834 46.7495 47.2428C46.5382 47.2023 46.3192 47.2231 46.1201 47.3026C45.921 47.3821 45.7509 47.5168 45.6312 47.6896C45.5115 47.8623 45.4476 48.0654 45.4476 48.2732C45.4476 48.5518 45.5623 48.819 45.7667 49.016C45.971 49.2131 46.2481 49.3237 46.537 49.3237ZM46.537 45.1216C46.7525 45.1216 46.9631 45.06 47.1423 44.9445C47.3214 44.8291 47.4611 44.665 47.5435 44.4731C47.626 44.2811 47.6476 44.0699 47.6055 43.8661C47.5635 43.6623 47.4597 43.4751 47.3074 43.3282C47.155 43.1813 46.9609 43.0812 46.7495 43.0407C46.5382 43.0002 46.3192 43.021 46.1201 43.1005C45.921 43.18 45.7509 43.3146 45.6312 43.4874C45.5115 43.6602 45.4476 43.8633 45.4476 44.0711C45.4476 44.3497 45.5623 44.6169 45.7667 44.8139C45.971 45.0109 46.2481 45.1216 46.537 45.1216ZM41.0898 45.1216C41.3052 45.1216 41.5159 45.06 41.695 44.9445C41.8742 44.8291 42.0138 44.665 42.0963 44.4731C42.1788 44.2811 42.2003 44.0699 42.1583 43.8661C42.1163 43.6623 42.0125 43.4751 41.8601 43.3282C41.7078 43.1813 41.5136 43.0812 41.3023 43.0407C41.091 43.0002 40.8719 43.021 40.6729 43.1005C40.4738 43.18 40.3036 43.3146 40.1839 43.4874C40.0642 43.6602 40.0003 43.8633 40.0003 44.0711C40.0003 44.3497 40.1151 44.6169 40.3194 44.8139C40.5237 45.0109 40.8008 45.1216 41.0898 45.1216ZM48.7159 32.5151H47.6265V31.4646C47.6265 31.186 47.5117 30.9188 47.3074 30.7218C47.1031 30.5247 46.8259 30.4141 46.537 30.4141C46.2481 30.4141 45.971 30.5247 45.7667 30.7218C45.5623 30.9188 45.4476 31.186 45.4476 31.4646V32.5151H36.732V31.4646C36.732 31.186 36.6172 30.9188 36.4129 30.7218C36.2086 30.5247 35.9315 30.4141 35.6425 30.4141C35.3536 30.4141 35.0765 30.5247 34.8722 30.7218C34.6679 30.9188 34.5531 31.186 34.5531 31.4646V32.5151H33.4637C32.5968 32.5151 31.7655 32.8472 31.1526 33.4382C30.5397 34.0293 30.1953 34.8309 30.1953 35.6668V50.3743C30.1953 51.2101 30.5397 52.0118 31.1526 52.6028C31.7655 53.1938 32.5968 53.5259 33.4637 53.5259H48.7159C49.5827 53.5259 50.414 53.1938 51.027 52.6028C51.6399 52.0118 51.9842 51.2101 51.9842 50.3743V35.6668C51.9842 34.8309 51.6399 34.0293 51.027 33.4382C50.414 32.8472 49.5827 32.5151 48.7159 32.5151ZM49.8053 50.3743C49.8053 50.6529 49.6906 50.9201 49.4863 51.1171C49.2819 51.3141 49.0048 51.4248 48.7159 51.4248H33.4637C33.1747 51.4248 32.8976 51.3141 32.6933 51.1171C32.489 50.9201 32.3742 50.6529 32.3742 50.3743V40.9194H49.8053V50.3743ZM49.8053 38.8184H32.3742V35.6668C32.3742 35.3881 32.489 35.1209 32.6933 34.9239C32.8976 34.7269 33.1747 34.6162 33.4637 34.6162H34.5531V35.6668C34.5531 35.9454 34.6679 36.2126 34.8722 36.4096C35.0765 36.6066 35.3536 36.7173 35.6425 36.7173C35.9315 36.7173 36.2086 36.6066 36.4129 36.4096C36.6172 36.2126 36.732 35.9454 36.732 35.6668V34.6162H45.4476V35.6668C45.4476 35.9454 45.5623 36.2126 45.7667 36.4096C45.971 36.6066 46.2481 36.7173 46.537 36.7173C46.8259 36.7173 47.1031 36.6066 47.3074 36.4096C47.5117 36.2126 47.6265 35.9454 47.6265 35.6668V34.6162H48.7159C49.0048 34.6162 49.2819 34.7269 49.4863 34.9239C49.6906 35.1209 49.8053 35.3881 49.8053 35.6668V38.8184ZM35.6425 45.1216C35.858 45.1216 36.0686 45.06 36.2478 44.9445C36.427 44.8291 36.5666 44.665 36.6491 44.4731C36.7315 44.2811 36.7531 44.0699 36.7111 43.8661C36.669 43.6623 36.5653 43.4751 36.4129 43.3282C36.2605 43.1813 36.0664 43.0812 35.8551 43.0407C35.6438 43.0002 35.4247 43.021 35.2256 43.1005C35.0266 43.18 34.8564 43.3146 34.7367 43.4874C34.617 43.6602 34.5531 43.8633 34.5531 44.0711C34.5531 44.3497 34.6679 44.6169 34.8722 44.8139C35.0765 45.0109 35.3536 45.1216 35.6425 45.1216ZM35.6425 49.3237C35.858 49.3237 36.0686 49.2621 36.2478 49.1467C36.427 49.0313 36.5666 48.8672 36.6491 48.6752C36.7315 48.4833 36.7531 48.272 36.7111 48.0683C36.669 47.8645 36.5653 47.6773 36.4129 47.5304C36.2605 47.3834 36.0664 47.2834 35.8551 47.2428C35.6438 47.2023 35.4247 47.2231 35.2256 47.3026C35.0266 47.3821 34.8564 47.5168 34.7367 47.6896C34.617 47.8623 34.5531 48.0654 34.5531 48.2732C34.5531 48.5518 34.6679 48.819 34.8722 49.016C35.0765 49.2131 35.3536 49.3237 35.6425 49.3237Z" fill="#2F5A86"/>
<path d="M61.4787 20.7518C65.5318 24.8558 68.292 30.0846 69.4102 35.777C70.5285 41.4694 69.9546 47.3697 67.761 52.7318C65.5675 58.094 61.8529 62.677 57.0869 65.9015C52.321 69.126 46.7178 70.8471 40.9858 70.8471C35.2538 70.8471 29.6506 69.126 24.8846 65.9015C20.1187 62.677 16.4041 58.094 14.2105 52.7318C12.017 47.3697 11.4431 41.4694 12.5613 35.777C13.6796 30.0846 16.4398 24.8558 20.4929 20.7518L23.8329 24.1337C20.4403 27.5688 18.13 31.9454 17.194 36.7101C16.258 41.4747 16.7384 46.4134 18.5744 50.9016C20.4104 55.3898 23.5196 59.2259 27.5088 61.9248C31.498 64.6238 36.188 66.0643 40.9858 66.0643C45.7835 66.0643 50.4736 64.6238 54.4628 61.9248C58.4519 59.2259 61.5611 55.3898 63.3972 50.9016C65.2332 46.4134 65.7136 41.4747 64.7776 36.7101C63.8416 31.9454 61.5312 27.5688 58.1387 24.1337L61.4787 20.7518Z" fill="#DCE7F2"/>
</svg>
