<svg width="78" height="79" viewBox="0 0 78 79" fill="none" xmlns="http://www.w3.org/2000/svg">
<path d="M58.3363 19.6894C62.1823 23.5836 64.8014 28.5451 65.8625 33.9466C66.9236 39.348 66.379 44.9468 64.2976 50.0348C62.2161 55.1228 58.6914 59.4717 54.1691 62.5313C49.6467 65.591 44.3299 67.2241 38.8909 67.2241C33.4519 67.2241 28.135 65.591 23.6127 62.5313C19.0903 59.4717 15.5656 55.1228 13.4842 50.0348C11.4028 44.9468 10.8582 39.348 11.9193 33.9466C12.9804 28.5451 15.5995 23.5836 19.4454 19.6894L22.6147 22.8984C19.3956 26.158 17.2033 30.3108 16.3152 34.832C15.427 39.3531 15.8828 44.0393 17.625 48.2981C19.3672 52.5569 22.3175 56.1969 26.1028 58.7579C29.888 61.3189 34.3383 62.6858 38.8909 62.6858C43.4434 62.6858 47.8937 61.3189 51.679 58.7579C55.4643 56.1969 58.4145 52.5569 60.1567 48.2981C61.8989 44.0393 62.3547 39.3531 61.4666 34.832C60.5784 30.3109 58.3862 26.158 55.1671 22.8984L58.3363 19.6894Z" fill="#DCE7F2"/>
<path d="M34.4054 49.7856C32.8974 49.7856 31.5801 49.3783 30.4534 48.5636C29.3268 47.749 28.4514 46.527 27.8274 44.8976C27.2034 43.251 26.8914 41.2403 26.8914 38.8656C26.8914 36.491 27.2034 34.489 27.8274 32.8596C28.4514 31.213 29.3268 29.9823 30.4534 29.1676C31.5801 28.353 32.8974 27.9456 34.4054 27.9456C35.9134 27.9456 37.2308 28.353 38.3574 29.1676C39.4841 29.9823 40.3594 31.213 40.9834 32.8596C41.6074 34.489 41.9194 36.491 41.9194 38.8656C41.9194 41.2403 41.6074 43.251 40.9834 44.8976C40.3594 46.527 39.4841 47.749 38.3574 48.5636C37.2308 49.3783 35.9134 49.7856 34.4054 49.7856ZM34.4054 49.1876C35.7054 49.1876 36.7281 48.555 37.4734 47.2896C38.2188 46.0243 38.5914 44.0483 38.5914 41.3616V36.3436C38.5914 33.6743 38.2188 31.707 37.4734 30.4416C36.7281 29.1763 35.7054 28.5436 34.4054 28.5436C33.1054 28.5436 32.0828 29.1763 31.3374 30.4416C30.5921 31.707 30.2194 33.6743 30.2194 36.3436V41.3616C30.2194 44.031 30.5921 46.007 31.3374 47.2896C32.0828 48.555 33.1054 49.1876 34.4054 49.1876ZM44.8909 49.2656V48.7456L46.7109 48.4856V29.2456L44.8909 28.9856V28.4656H49.3109V48.4856L51.1309 48.7456V49.2656H44.8909Z" fill="#2F5A86"/>
</svg>
