<svg width="30" height="30" viewBox="0 0 30 30" fill="none" xmlns="http://www.w3.org/2000/svg">
<circle cx="15" cy="15" r="15" fill="#DCE7F2"/>
<path d="M20.832 14.1673H15.832V9.16732C15.832 8.9463 15.7442 8.73434 15.588 8.57806C15.4317 8.42178 15.2197 8.33398 14.9987 8.33398C14.7777 8.33398 14.5657 8.42178 14.4094 8.57806C14.2532 8.73434 14.1654 8.9463 14.1654 9.16732V14.1673H9.16536C8.94435 14.1673 8.73239 14.2551 8.57611 14.4114C8.41983 14.5677 8.33203 14.7796 8.33203 15.0007C8.33203 15.2217 8.41983 15.4336 8.57611 15.5899C8.73239 15.7462 8.94435 15.834 9.16536 15.834H14.1654V20.834C14.1654 21.055 14.2532 21.267 14.4094 21.4232C14.5657 21.5795 14.7777 21.6673 14.9987 21.6673C15.2197 21.6673 15.4317 21.5795 15.588 21.4232C15.7442 21.267 15.832 21.055 15.832 20.834V15.834H20.832C21.053 15.834 21.265 15.7462 21.4213 15.5899C21.5776 15.4336 21.6654 15.2217 21.6654 15.0007C21.6654 14.7796 21.5776 14.5677 21.4213 14.4114C21.265 14.2551 21.053 14.1673 20.832 14.1673Z" fill="white"/>
</svg>
