<svg width="78" height="79" viewBox="0 0 78 79" fill="none" xmlns="http://www.w3.org/2000/svg">
<path d="M58.3363 19.6894C62.1823 23.5836 64.8014 28.5451 65.8625 33.9466C66.9236 39.348 66.379 44.9468 64.2976 50.0348C62.2161 55.1228 58.6914 59.4717 54.1691 62.5313C49.6467 65.591 44.3299 67.2241 38.8909 67.2241C33.4519 67.2241 28.135 65.591 23.6127 62.5313C19.0903 59.4717 15.5656 55.1228 13.4842 50.0348C11.4028 44.9468 10.8582 39.348 11.9193 33.9466C12.9804 28.5451 15.5995 23.5836 19.4454 19.6894L22.6147 22.8984C19.3956 26.158 17.2033 30.3108 16.3152 34.832C15.427 39.3531 15.8828 44.0393 17.625 48.2981C19.3672 52.5569 22.3175 56.1969 26.1028 58.7579C29.888 61.3189 34.3383 62.6858 38.8909 62.6858C43.4434 62.6858 47.8937 61.3189 51.679 58.7579C55.4643 56.1969 58.4145 52.5569 60.1567 48.2981C61.8989 44.0393 62.3547 39.3531 61.4666 34.832C60.5784 30.3109 58.3862 26.158 55.1671 22.8984L58.3363 19.6894Z" fill="#DCE7F2"/>
<path d="M30.4386 49.7856C28.9306 49.7856 27.6133 49.3783 26.4866 48.5636C25.36 47.749 24.4846 46.527 23.8606 44.8976C23.2366 43.251 22.9246 41.2403 22.9246 38.8656C22.9246 36.491 23.2366 34.489 23.8606 32.8596C24.4846 31.213 25.36 29.9823 26.4866 29.1676C27.6133 28.353 28.9306 27.9456 30.4386 27.9456C31.9466 27.9456 33.264 28.353 34.3906 29.1676C35.5173 29.9823 36.3926 31.213 37.0166 32.8596C37.6406 34.489 37.9526 36.491 37.9526 38.8656C37.9526 41.2403 37.6406 43.251 37.0166 44.8976C36.3926 46.527 35.5173 47.749 34.3906 48.5636C33.264 49.3783 31.9466 49.7856 30.4386 49.7856ZM30.4386 49.1876C31.7386 49.1876 32.7613 48.555 33.5066 47.2896C34.252 46.0243 34.6246 44.0483 34.6246 41.3616V36.3436C34.6246 33.6743 34.252 31.707 33.5066 30.4416C32.7613 29.1763 31.7386 28.5436 30.4386 28.5436C29.1386 28.5436 28.116 29.1763 27.3706 30.4416C26.6253 31.707 26.2526 33.6743 26.2526 36.3436V41.3616C26.2526 44.031 26.6253 46.007 27.3706 47.2896C28.116 48.555 29.1386 49.1876 30.4386 49.1876ZM40.4821 47.2636L45.9681 41.6736C47.4068 40.183 48.4988 38.7356 49.2441 37.3316C50.0068 35.9103 50.3881 34.4456 50.3881 32.9376C50.3881 31.4123 50.0588 30.303 49.4001 29.6096C48.7588 28.899 47.8835 28.5436 46.7741 28.5436C45.9075 28.5436 45.1535 28.7776 44.5121 29.2456C43.8708 29.7136 43.5501 30.329 43.5501 31.0916C43.5501 32.0103 44.0095 32.695 44.9281 33.1456C44.9281 33.7696 44.7375 34.2463 44.3561 34.5756C43.9748 34.905 43.5241 35.0696 43.0041 35.0696C42.4495 35.0696 41.9728 34.8703 41.5741 34.4716C41.1755 34.0556 40.9761 33.4923 40.9761 32.7816C40.9761 31.8456 41.2621 31.0136 41.8341 30.2856C42.4061 29.5403 43.1688 28.9683 44.1221 28.5696C45.0755 28.1536 46.0981 27.9456 47.1901 27.9456C49.3048 27.9456 50.8735 28.4483 51.8961 29.4536C52.9188 30.4416 53.4301 31.7503 53.4301 33.3796C53.4301 34.3676 53.2221 35.2776 52.8061 36.1096C52.4075 36.9243 51.9221 37.635 51.3501 38.2416C50.7955 38.8483 50.0328 39.5763 49.0621 40.4256L48.3341 41.0496L42.1201 46.5356H51.8181L52.8841 42.6876H53.5601V49.2656H40.4821V47.2636Z" fill="#2F5A86"/>
</svg>
