<svg width="41" height="40" viewBox="0 0 41 40" fill="none" xmlns="http://www.w3.org/2000/svg">
<path d="M24.0391 15.7109H26.4907" stroke="#87CDFF" stroke-width="2" stroke-linecap="round"/>
<path d="M13.0078 15.7109H15.4594" stroke="#87CDFF" stroke-width="2" stroke-linecap="round"/>
<path d="M13.2344 15.7097C13.2344 16.262 13.6821 16.7097 14.2344 16.7097C14.7867 16.7097 15.2344 16.262 15.2344 15.7097H13.2344ZM24.2666 15.7097C24.2666 16.262 24.7143 16.7097 25.2666 16.7097C25.8189 16.7097 26.2666 16.262 26.2666 15.7097H24.2666ZM15.2344 15.7097V6.51613H13.2344V15.7097H15.2344ZM24.2666 6.51613V15.7097H26.2666V6.51613H24.2666ZM19.7505 2C22.2447 2 24.2666 4.02194 24.2666 6.51613H26.2666C26.2666 2.91737 23.3493 0 19.7505 0V2ZM15.2344 6.51613C15.2344 4.02194 17.2563 2 19.7505 2V0C16.1517 0 13.2344 2.91737 13.2344 6.51613H15.2344Z" fill="#87CDFF"/>
<path d="M6.1409 36.7683L5.14771 36.6518L6.1409 36.7683ZM33.3589 36.7683L32.3657 36.8849L33.3589 36.7683ZM30.3765 11.349L29.3833 11.4655L30.3765 11.349ZM11.1096 10.582H28.3902V8.58203H11.1096V10.582ZM29.3833 11.4655L32.3657 36.8849L34.352 36.6518L31.3697 11.2325L29.3833 11.4655ZM31.3725 38.0014H8.12727V40.0014H31.3725V38.0014ZM7.13409 36.8849L10.1164 11.4655L8.13003 11.2325L5.14771 36.6518L7.13409 36.8849ZM8.12727 38.0014C7.52881 38.0014 7.06435 37.4793 7.13409 36.8849L5.14771 36.6518C4.9385 38.435 6.33187 40.0014 8.12727 40.0014V38.0014ZM32.3657 36.8849C32.4354 37.4792 31.9709 38.0014 31.3725 38.0014V40.0014C33.1679 40.0014 34.5612 38.435 34.352 36.6518L32.3657 36.8849ZM28.3902 10.582C28.8974 10.582 29.3242 10.9618 29.3833 11.4655L31.3697 11.2325C31.1924 9.7212 29.9118 8.58203 28.3902 8.58203V10.582ZM11.1096 8.58203C9.58797 8.58203 8.30733 9.7212 8.13003 11.2325L10.1164 11.4655C10.1755 10.9618 10.6024 10.582 11.1096 10.582V8.58203Z" fill="#87CDFF"/>
</svg>
