<svg width="62" height="62" viewBox="0 0 62 62" fill="none" xmlns="http://www.w3.org/2000/svg">
<g clip-path="url(#clip0_311_1238)">
<path d="M60.2722 30.2415H58.4132V25.5924C58.4132 25.0742 57.9918 24.6537 57.4735 24.6537H47.971V11.7461C47.971 11.2278 47.5506 10.8054 47.0313 10.8054H44.2055V6.51872C44.2055 5.9985 43.7851 5.57806 43.2658 5.57806H41.5327V0.940656C41.5327 0.422375 41.1123 0 40.593 0H21.4031C20.8838 0 20.4634 0.422375 20.4634 0.940656V5.57806H18.7303C18.212 5.57806 17.7906 5.9985 17.7906 6.51872V10.8064H14.9648C14.4455 10.8064 14.0251 11.2288 14.0251 11.7471V24.6547H4.51387C3.99559 24.6547 3.57516 25.0751 3.57516 25.5934V30.2424H1.72484C1.20559 30.2424 0.785156 30.6629 0.785156 31.1831V61.0632C0.785156 61.5815 1.20559 62.0019 1.72484 62.0019H60.2722C60.7905 62.0019 61.2119 61.5815 61.2119 61.0632V31.1821C61.2119 30.6609 60.7905 30.2415 60.2722 30.2415ZM14.0251 60.1235H2.66453V32.1199H14.026V60.1235H14.0251ZM14.0251 30.2415H5.45356V26.5331H14.026V30.2415H14.0251ZM22.3418 1.87841H39.6553V5.57709H22.3418V1.87841ZM19.67 7.45647H42.3281V10.8054H19.67V7.45647ZM36.6134 60.1235H25.374V49.1582C25.374 46.0592 27.8956 43.5366 31.0034 43.5366C34.0966 43.5366 36.6144 46.0592 36.6144 49.1582V60.1235H36.6134ZM46.0926 60.1235H38.4928V49.1582C38.4928 45.0217 35.1332 41.6582 30.9937 41.6582C26.8591 41.6582 23.4946 45.0227 23.4946 49.1582V60.1226H15.9044V31.2054C15.9044 31.1957 15.9093 31.1879 15.9093 31.1812C15.9093 31.1715 15.9044 31.1637 15.9044 31.155V25.6186C15.9044 25.6089 15.9093 25.6012 15.9093 25.5924C15.9093 25.5847 15.9044 25.5769 15.9044 25.5682V12.6848H46.0926V60.1235ZM47.972 26.5331H56.5348V30.2415H47.972V26.5331ZM59.3325 60.1235H47.972V32.1199H59.3335V60.1235H59.3325Z" fill="#87CDFF"/>
<path d="M18.6694 21.6136H23.8929C24.4121 21.6136 24.8326 21.1932 24.8326 20.6749V15.4504C24.8326 14.9302 24.4121 14.5098 23.8929 14.5098H18.6694C18.1511 14.5098 17.7297 14.9302 17.7297 15.4504V20.6749C17.7307 21.1932 18.1511 21.6136 18.6694 21.6136ZM19.6091 16.3891H22.9532V19.7342H19.6091V16.3891ZM28.3869 21.6136H33.6104C34.1297 21.6136 34.5501 21.1932 34.5501 20.6749V15.4504C34.5501 14.9302 34.1297 14.5098 33.6104 14.5098H28.3869C27.8677 14.5098 27.4472 14.9302 27.4472 15.4504V20.6749C27.4472 21.1932 27.8686 21.6136 28.3869 21.6136ZM29.3266 16.3891H32.6707V19.7342H29.3266V16.3891ZM38.1044 21.6136H43.3279C43.8472 21.6136 44.2676 21.1932 44.2676 20.6749V15.4504C44.2676 14.9302 43.8472 14.5098 43.3279 14.5098H38.1044C37.5862 14.5098 37.1648 14.9302 37.1648 15.4504V20.6749C37.1648 21.1932 37.5862 21.6136 38.1044 21.6136ZM39.0441 16.3891H42.3883V19.7342H39.0441V16.3891ZM18.6694 30.7237H23.8929C24.4121 30.7237 24.8326 30.3014 24.8326 29.7831V24.5605C24.8326 24.0403 24.4121 23.6199 23.8929 23.6199H18.6694C18.1511 23.6199 17.7297 24.0403 17.7297 24.5605V29.7831C17.7307 30.3014 18.1511 30.7237 18.6694 30.7237ZM19.6091 25.4993H22.9532V28.8444H19.6091V25.4993ZM28.3869 30.7237H33.6104C34.1297 30.7237 34.5501 30.3014 34.5501 29.7831V24.5605C34.5501 24.0403 34.1297 23.6199 33.6104 23.6199H28.3869C27.8677 23.6199 27.4472 24.0403 27.4472 24.5605V29.7831C27.4472 30.3014 27.8686 30.7237 28.3869 30.7237ZM29.3266 25.4993H32.6707V28.8444H29.3266V25.4993ZM38.1044 30.7237H43.3279C43.8472 30.7237 44.2676 30.3014 44.2676 29.7831V24.5605C44.2676 24.0403 43.8472 23.6199 43.3279 23.6199H38.1044C37.5862 23.6199 37.1648 24.0403 37.1648 24.5605V29.7831C37.1648 30.3014 37.5862 30.7237 38.1044 30.7237ZM39.0441 25.4993H42.3883V28.8444H39.0441V25.4993ZM18.6694 39.8339H23.8929C24.4121 39.8339 24.8326 39.4134 24.8326 38.8932V33.6687C24.8326 33.1505 24.4121 32.73 23.8929 32.73H18.6694C18.1511 32.73 17.7297 33.1505 17.7297 33.6687V38.8932C17.7307 39.4144 18.1511 39.8339 18.6694 39.8339ZM19.6091 34.6104H22.9532V37.9555H19.6091V34.6104ZM28.3869 39.8339H33.6104C34.1297 39.8339 34.5501 39.4134 34.5501 38.8932V33.6687C34.5501 33.1505 34.1297 32.73 33.6104 32.73H28.3869C27.8677 32.73 27.4472 33.1505 27.4472 33.6687V38.8932C27.4472 39.4144 27.8686 39.8339 28.3869 39.8339ZM29.3266 34.6104H32.6707V37.9555H29.3266V34.6104ZM38.1044 39.8339H43.3279C43.8472 39.8339 44.2676 39.4134 44.2676 38.8932V33.6687C44.2676 33.1505 43.8472 32.73 43.3279 32.73H38.1044C37.5862 32.73 37.1648 33.1505 37.1648 33.6687V38.8932C37.1648 39.4144 37.5862 39.8339 38.1044 39.8339ZM39.0441 34.6104H42.3883V37.9555H39.0441V34.6104ZM51.0431 43.6595H56.2666C56.7848 43.6595 57.2053 43.239 57.2053 42.7188V37.4963C57.2053 36.976 56.7848 36.5556 56.2666 36.5556H51.0431C50.5238 36.5556 50.1034 36.976 50.1034 37.4963V42.7188C50.1043 43.24 50.5248 43.6595 51.0431 43.6595ZM51.9828 38.4359H55.3278V41.781H51.9828V38.4359ZM51.0431 55.6836H56.2666C56.7848 55.6836 57.2053 55.2631 57.2053 54.7449V49.5204C57.2053 49.0021 56.7848 48.5817 56.2666 48.5817H51.0431C50.5238 48.5817 50.1034 49.0021 50.1034 49.5204V54.7449C50.1043 55.2641 50.5248 55.6836 51.0431 55.6836ZM51.9828 50.462H55.3278V53.8052H51.9828V50.462ZM5.73656 43.6595H10.9591C11.4774 43.6595 11.8988 43.239 11.8988 42.7188V37.4963C11.8988 36.976 11.4774 36.5556 10.9591 36.5556H5.73656C5.21731 36.5556 4.79688 36.976 4.79688 37.4963V42.7188C4.79688 43.24 5.21731 43.6595 5.73656 43.6595ZM6.67625 38.4359H10.0204V41.781H6.67625V38.4359ZM5.73656 55.6836H10.9591C11.4774 55.6836 11.8988 55.2631 11.8988 54.7449V49.5204C11.8988 49.0021 11.4774 48.5817 10.9591 48.5817H5.73656C5.21731 48.5817 4.79688 49.0021 4.79688 49.5204V54.7449C4.79688 55.2641 5.21731 55.6836 5.73656 55.6836ZM6.67625 50.462H10.0204V53.8052H6.67625V50.462ZM27.3484 49.9515C26.8292 49.9515 26.4087 50.3719 26.4087 50.8902V52.7686C26.4087 53.2888 26.8292 53.7093 27.3484 53.7093C27.8677 53.7093 28.2881 53.2888 28.2881 52.7686V50.8902C28.2881 50.371 27.8677 49.9515 27.3484 49.9515Z" fill="#87CDFF"/>
</g>
<defs>
<clipPath id="clip0_311_1238">
<rect width="62" height="62" fill="white"/>
</clipPath>
</defs>
</svg>
