<svg width="37" height="37" viewBox="0 0 37 37" fill="none" xmlns="http://www.w3.org/2000/svg">
<path d="M30.0625 36.4219H6.9375C5.34361 36.4219 4.04688 35.1251 4.04688 33.5312V3.46875C4.04688 1.87486 5.34361 0.578125 6.9375 0.578125H18.6986C19.4707 0.578125 20.1968 0.879039 20.7423 1.42479L32.1065 12.789C32.6525 13.335 32.9531 14.0606 32.9531 14.8327V33.5312C32.9531 35.1251 31.6564 36.4219 30.0625 36.4219ZM6.9375 1.73438C5.98099 1.73438 5.20312 2.51224 5.20312 3.46875V33.5312C5.20312 34.4878 5.98099 35.2656 6.9375 35.2656H30.0625C31.019 35.2656 31.7969 34.4878 31.7969 33.5312V14.8327C31.7969 14.3762 31.6116 13.9293 31.289 13.6065L19.9248 2.24226C19.5973 1.91475 19.1617 1.73438 18.6986 1.73438H6.9375Z" fill="#FD4233"/>
<path d="M27.5233 23.2175C27.503 23.0701 27.3845 22.8851 27.2573 22.7608C26.8931 22.4023 26.0924 22.2145 24.8726 22.1971C24.0458 22.1884 23.0515 22.2607 22.0051 22.4081C21.5368 22.1393 21.054 21.8445 20.6754 21.4889C19.655 20.5379 18.8051 19.2169 18.2733 17.7629C18.3079 17.627 18.3368 17.5085 18.3658 17.3871C18.3658 17.3871 18.9381 14.1265 18.7878 13.0223C18.7675 12.872 18.7531 12.8286 18.7126 12.7101L18.6635 12.5829C18.5074 12.2216 18.201 11.84 17.7211 11.8602L17.4379 11.8516H17.4321C16.8944 11.8516 16.4608 12.1262 16.3452 12.5338C15.9983 13.8172 16.3568 15.7395 17.0072 18.2254L16.8395 18.6301C16.3741 19.769 15.7902 20.9137 15.2757 21.9225L15.2092 22.0526C14.6658 23.1134 14.1743 24.0153 13.7263 24.7784L13.2667 25.0212C13.232 25.0386 12.4429 25.4577 12.2579 25.5676C10.6883 26.507 9.64763 27.5708 9.47419 28.4148C9.41927 28.6866 9.45974 29.0305 9.74013 29.1895L10.1853 29.415C10.379 29.5104 10.5842 29.5595 10.7923 29.5595C11.911 29.5595 13.2089 28.1663 14.9982 25.0444C17.0621 24.3737 19.4151 23.813 21.4761 23.5066C23.0457 24.3882 24.9766 25.0039 26.1965 25.0039C26.4133 25.0039 26.6011 24.9837 26.7515 24.9432C26.9856 24.8796 27.1822 24.7466 27.3036 24.5674C27.5406 24.2119 27.5868 23.7205 27.5233 23.2175ZM10.5495 28.7126C10.7518 28.1547 11.5612 27.0505 12.755 26.0734C12.8302 26.0127 13.0152 25.8393 13.1829 25.6774C11.9341 27.6691 11.0987 28.4611 10.5495 28.7126ZM17.62 12.4297C17.9784 12.4297 18.1836 13.3345 18.201 14.1843C18.2183 15.0341 18.0189 15.6296 17.7732 16.0719C17.5679 15.4186 17.4697 14.3895 17.4697 13.716C17.4697 13.716 17.4552 12.4297 17.62 12.4297ZM15.5098 24.0327C15.7613 23.5846 16.0215 23.1105 16.2874 22.6105C16.9378 21.382 17.3483 20.4223 17.6518 19.6331C18.2588 20.7373 19.0161 21.6768 19.9036 22.4284C20.0163 22.5209 20.1348 22.6163 20.2562 22.7116C18.4496 23.0672 16.8858 23.5037 15.5098 24.0327ZM26.9076 23.9315C26.7977 23.998 26.4826 24.0384 26.2803 24.0384C25.627 24.0384 24.8147 23.7407 23.6787 23.2522C24.1152 23.2204 24.517 23.203 24.8754 23.203C25.5316 23.203 25.7253 23.2002 26.3699 23.3649C27.0116 23.5297 27.0203 23.8621 26.9076 23.9315Z" fill="#FF402F"/>
</svg>
