<svg width="1835" height="280" viewBox="0 0 1835 280" fill="none" xmlns="http://www.w3.org/2000/svg">
<g clip-path="url(#clip0_311_586)">
<path d="M143.681 135.408C101.137 76.955 44.1444 44.858 15.5144 63.3856C-12.8481 82.174 -1.61015 144.542 40.9336 202.733C83.2097 261.185 140.47 293.283 168.832 274.756C197.195 256.228 185.957 193.6 143.681 135.408ZM161.073 261.447C136.992 277.365 88.0261 249.966 51.6364 200.123C15.5144 150.282 5.88184 97.0482 30.2308 81.1302C54.3121 65.2122 103.545 92.612 139.4 142.454C175.522 192.296 185.155 245.529 161.073 261.447Z" fill="white"/>
<path d="M143.681 135.408C101.137 76.955 44.1444 44.858 15.5144 63.3856C-12.8481 82.174 -1.61015 144.542 40.9336 202.733C83.2097 261.185 140.47 293.283 168.832 274.756C197.195 256.228 185.957 193.6 143.681 135.408ZM161.073 261.447C136.992 277.365 88.0261 249.966 51.6364 200.123C15.5144 150.282 5.88184 97.0482 30.2308 81.1302C54.3121 65.2122 103.545 92.612 139.4 142.454C175.522 192.296 185.155 245.529 161.073 261.447Z" fill="url(#paint0_linear_311_586)"/>
<path d="M279.086 177.432C328.588 102.8 342.5 25.8193 310.125 5.20414C277.481 -15.672 210.589 28.1678 161.088 102.539C111.587 176.91 97.6734 254.151 130.049 274.766C162.961 295.643 229.319 251.803 279.086 177.432ZM142.09 259.892C114.263 242.147 126.036 176.388 168.58 112.716C210.856 49.0439 267.848 11.7279 295.676 29.4726C323.503 46.9562 311.73 112.977 269.454 176.648C226.91 240.32 169.918 277.637 142.09 259.892Z" fill="white"/>
<path d="M279.086 177.432C328.588 102.8 342.5 25.8193 310.125 5.20414C277.481 -15.672 210.589 28.1678 161.088 102.539C111.587 176.91 97.6734 254.151 130.049 274.766C162.961 295.643 229.319 251.803 279.086 177.432ZM142.09 259.892C114.263 242.147 126.036 176.388 168.58 112.716C210.856 49.0439 267.848 11.7279 295.676 29.4726C323.503 46.9562 311.73 112.977 269.454 176.648C226.91 240.32 169.918 277.637 142.09 259.892Z" fill="url(#paint1_linear_311_586)"/>
<path d="M1176.51 21.1406H1188.28V249.473H1334.11V258.867H1176.51V21.1406Z" fill="white"/>
<path d="M1176.51 21.1406H1188.28V249.473H1334.11V258.867H1176.51V21.1406Z" fill="url(#paint2_linear_311_586)"/>
<path d="M1592.32 200.414H1411.17L1378.8 259.127H1366.22L1497.06 21.1406H1506.7L1637.53 259.127H1624.43L1592.32 200.414ZM1416.26 190.758H1586.7L1498.66 30.5348H1504.56L1416.26 190.758Z" fill="white"/>
<path d="M1592.32 200.414H1411.17L1378.8 259.127H1366.22L1497.06 21.1406H1506.7L1637.53 259.127H1624.43L1592.32 200.414ZM1416.26 190.758H1586.7L1498.66 30.5348H1504.56L1416.26 190.758Z" fill="url(#paint3_linear_311_586)"/>
<path d="M1704.69 249.473H1696.39L1822.16 21.1406H1835L1704.15 259.127H1697.2L1566.36 21.1406H1578.94L1704.69 249.473Z" fill="white"/>
<path d="M1704.69 249.473H1696.39L1822.16 21.1406H1835L1704.15 259.127H1697.2L1566.36 21.1406H1578.94L1704.69 249.473Z" fill="url(#paint4_linear_311_586)"/>
<path d="M432.394 240.065H509.723C539.958 240.065 564.575 220.234 564.575 194.921C564.575 128.379 431.859 170.131 431.859 85.0611C431.859 49.5718 466.643 20.8672 509.723 20.8672H587.586V39.9166H509.723C479.487 39.9166 454.871 60.0098 454.871 85.0611C454.871 151.603 587.586 109.851 587.586 194.921C587.586 230.411 552.8 258.854 509.723 258.854H432.394V240.065Z" fill="white"/>
<path d="M432.394 240.065H509.723C539.958 240.065 564.575 220.234 564.575 194.921C564.575 128.379 431.859 170.131 431.859 85.0611C431.859 49.5718 466.643 20.8672 509.723 20.8672H587.586V39.9166H509.723C479.487 39.9166 454.871 60.0098 454.871 85.0611C454.871 151.603 587.586 109.851 587.586 194.921C587.586 230.411 552.8 258.854 509.723 258.854H432.394V240.065Z" fill="url(#paint5_linear_311_586)"/>
<path d="M672.675 140.382L803.249 259.115H772.211L657.155 154.735L635.75 174.306V258.854H612.738V20.8672H635.75V145.601L773.013 20.8672H803.784L672.675 140.382Z" fill="white"/>
<path d="M672.675 140.382L803.249 259.115H772.211L657.155 154.735L635.75 174.306V258.854H612.738V20.8672H635.75V145.601L773.013 20.8672H803.784L672.675 140.382Z" fill="url(#paint6_linear_311_586)"/>
<path d="M828.137 21.1406H851.148V259.127H828.137V21.1406Z" fill="white"/>
<path d="M828.137 21.1406H851.148V259.127H828.137V21.1406Z" fill="url(#paint7_linear_311_586)"/>
<path d="M885.668 21.1406H923.93L1120.59 228.596V21.1406H1143.61V259.127H1120.59L913.228 40.19H908.679V259.127H885.668V21.1406Z" fill="white"/>
<path d="M885.668 21.1406H923.93L1120.59 228.596V21.1406H1143.61V259.127H1120.59L913.228 40.19H908.679V259.127H885.668V21.1406Z" fill="url(#paint8_linear_311_586)"/>
</g>
<defs>
<linearGradient id="paint0_linear_311_586" x1="92.1803" y1="58.1406" x2="92.1803" y2="280.001" gradientUnits="userSpaceOnUse">
<stop stop-color="#E8EDF2" stop-opacity="0"/>
<stop offset="0.885417" stop-color="#E8EDF2" stop-opacity="0.734375"/>
<stop offset="1" stop-color="#E8EDF2"/>
</linearGradient>
<linearGradient id="paint1_linear_311_586" x1="220.087" y1="0" x2="220.087" y2="279.97" gradientUnits="userSpaceOnUse">
<stop stop-color="#E8EDF2" stop-opacity="0"/>
<stop offset="0.885417" stop-color="#E8EDF2" stop-opacity="0.734375"/>
<stop offset="1" stop-color="#E8EDF2"/>
</linearGradient>
<linearGradient id="paint2_linear_311_586" x1="1255.31" y1="21.1406" x2="1255.31" y2="258.867" gradientUnits="userSpaceOnUse">
<stop stop-color="#E8EDF2" stop-opacity="0"/>
<stop offset="0.885417" stop-color="#E8EDF2" stop-opacity="0.734375"/>
<stop offset="1" stop-color="#E8EDF2"/>
</linearGradient>
<linearGradient id="paint3_linear_311_586" x1="1501.88" y1="21.1406" x2="1501.88" y2="259.127" gradientUnits="userSpaceOnUse">
<stop stop-color="#E8EDF2" stop-opacity="0"/>
<stop offset="0.885417" stop-color="#E8EDF2" stop-opacity="0.734375"/>
<stop offset="1" stop-color="#E8EDF2"/>
</linearGradient>
<linearGradient id="paint4_linear_311_586" x1="1700.68" y1="21.1406" x2="1700.68" y2="259.127" gradientUnits="userSpaceOnUse">
<stop stop-color="#E8EDF2" stop-opacity="0"/>
<stop offset="0.885417" stop-color="#E8EDF2" stop-opacity="0.734375"/>
<stop offset="1" stop-color="#E8EDF2"/>
</linearGradient>
<linearGradient id="paint5_linear_311_586" x1="509.723" y1="20.8672" x2="509.723" y2="258.854" gradientUnits="userSpaceOnUse">
<stop stop-color="#E8EDF2" stop-opacity="0"/>
<stop offset="0.885417" stop-color="#E8EDF2" stop-opacity="0.734375"/>
<stop offset="1" stop-color="#E8EDF2"/>
</linearGradient>
<linearGradient id="paint6_linear_311_586" x1="708.261" y1="20.8672" x2="708.261" y2="259.115" gradientUnits="userSpaceOnUse">
<stop stop-color="#E8EDF2" stop-opacity="0"/>
<stop offset="0.885417" stop-color="#E8EDF2" stop-opacity="0.734375"/>
<stop offset="1" stop-color="#E8EDF2"/>
</linearGradient>
<linearGradient id="paint7_linear_311_586" x1="839.642" y1="21.1406" x2="839.642" y2="259.127" gradientUnits="userSpaceOnUse">
<stop stop-color="#E8EDF2" stop-opacity="0"/>
<stop offset="0.885417" stop-color="#E8EDF2" stop-opacity="0.734375"/>
<stop offset="1" stop-color="#E8EDF2"/>
</linearGradient>
<linearGradient id="paint8_linear_311_586" x1="1014.64" y1="21.1406" x2="1014.64" y2="259.127" gradientUnits="userSpaceOnUse">
<stop stop-color="#E8EDF2" stop-opacity="0"/>
<stop offset="0.885417" stop-color="#E8EDF2" stop-opacity="0.734375"/>
<stop offset="1" stop-color="#E8EDF2"/>
</linearGradient>
<clipPath id="clip0_311_586">
<rect width="1835" height="280" fill="white"/>
</clipPath>
</defs>
</svg>
