<svg width="242" height="37" viewBox="0 0 242 37" fill="none" xmlns="http://www.w3.org/2000/svg">
<g clip-path="url(#clip0_311_1060)">
<path d="M18.9495 17.8939C13.3388 10.1698 5.82263 5.92839 2.0469 8.37668C-1.69355 10.8594 -0.211486 19.1009 5.39919 26.7904C10.9746 34.5145 18.5261 38.756 22.2665 36.3077C26.007 33.8594 24.5249 25.5836 18.9495 17.8939ZM21.2432 34.5491C18.0673 36.6526 11.6097 33.0319 6.81068 26.4456C2.0469 19.8594 0.776558 12.825 3.9877 10.7215C7.16354 8.61805 13.6564 12.2387 18.3849 18.825C23.1487 25.4112 24.4191 32.4457 21.2432 34.5491Z" fill="#303030"/>
<path d="M36.8067 23.4464C43.335 13.5842 45.1698 3.41183 40.9002 0.68769C36.595 -2.07094 27.7733 3.72217 21.2452 13.5498C14.717 23.3774 12.882 33.5842 17.1518 36.3083C21.4921 39.0671 30.2434 33.274 36.8067 23.4464ZM18.7397 34.3429C15.0698 31.998 16.6225 23.3084 22.2332 14.8946C27.8085 6.4808 35.3246 1.54976 38.9946 3.89459C42.6645 6.20493 41.1119 14.9291 35.5365 23.3428C29.9257 31.7566 22.4096 36.6878 18.7397 34.3429Z" fill="#303030"/>
<path d="M155.16 2.79297H156.713V32.9654H175.944V34.2068H155.16V2.79297Z" fill="#303030"/>
<path d="M209.998 26.4826H186.108L181.838 34.2412H180.18L197.435 2.79297H198.706L215.96 34.2412H214.232L209.998 26.4826ZM186.778 25.2067H209.256L197.646 4.03434H198.424L186.778 25.2067Z" fill="#303030"/>
<path d="M224.814 32.9654H223.72L240.306 2.79297H242L224.743 34.2412H223.827L206.57 2.79297H208.23L224.814 32.9654Z" fill="#303030"/>
<path d="M57.0236 31.7232H67.2217C71.2092 31.7232 74.4556 29.1027 74.4556 25.7577C74.4556 16.9647 56.9531 22.4819 56.9531 11.2406C56.9531 6.55092 61.5405 2.75781 67.2217 2.75781H77.4904V5.27505H67.2217C63.2343 5.27505 59.9878 7.93023 59.9878 11.2406C59.9878 20.0336 77.4904 14.5164 77.4904 25.7577C77.4904 30.4475 72.9028 34.2061 67.2217 34.2061H57.0236V31.7232Z" fill="#303030"/>
<path d="M88.713 18.5509L105.933 34.2405H101.84L86.6663 20.4475L83.8433 23.0336V34.2061H80.8086V2.75781H83.8433V19.2406L101.946 2.75781H106.004L88.713 18.5509Z" fill="#303030"/>
<path d="M109.215 2.79297H112.25V34.2412H109.215V2.79297Z" fill="#303030"/>
<path d="M116.805 2.79297H121.851L147.787 30.2067V2.79297H150.822V34.2412H147.787L120.439 5.31021H119.839V34.2412H116.805V2.79297Z" fill="#303030"/>
<path d="M186.776 25.2031H209.255L209.96 26.4791H186.07L186.776 25.2031Z" fill="#303030"/>
</g>
<defs>
<clipPath id="clip0_311_1060">
<rect width="242" height="37" fill="white"/>
</clipPath>
</defs>
</svg>
